<svg xmlns="http://www.w3.org/2000/svg" viewBox="0 0 176.62 254.99"><defs><style>.cls-1{fill:#fab818;}.cls-2{fill:#eb4924;}</style></defs><title>logo_arkav_5.0</title><g id="Layer_2" data-name="Layer 2"><g id="Layer_1-2" data-name="Layer 1"><path class="cls-1" d="M83,68.16C86.48,72.85,90.4,77.47,94.5,82c6.26,7,13,13.78,19.37,20.48q2.78,2.91,5.47,5.8l.1.11a172.93,172.93,0,0,1,15.87,19.25c5.23,7.65,8.76,15.23,9.39,22.8a119.78,119.78,0,0,0,1.23-19.26c0-4-.25-8.53-.77-13.3q-.27-2.56-.67-5.21A113.82,113.82,0,0,0,142,100.47v-.05a89.82,89.82,0,0,0-10-23.8A74.44,74.44,0,0,0,124.12,66C94.72,32.88,73.19,24.88,73.19,5.77c0,0-10.43,28,5.2,55.42a66.23,66.23,0,0,0,4.57,7Z"/><path class="cls-2" d="M163.4,123.2c-.33,3.59-.75,6.9-1.26,10-3.75,22.88-12,32.79-20.35,40.27-2-13.78-8.12-30.34-22-49.15A193.53,193.53,0,0,0,106,107.72l-.06-.07c-.61-.66-1.24-1.32-1.86-2-3.48-3.68-7.24-7.42-11.33-11.23-5.1-4.75-10.36-9.54-15.37-14.55A121.2,121.2,0,0,1,60.82,60C50.95,44.55,46.16,25.79,53.69,0h0c-.07.1-26.29,35.36-2.14,86.58l.23.5-.32-.42c-7.91-10.1-21.06-21.77-31-25.88,11.31,24.91.15,47.82-7.67,60.62a87.75,87.75,0,0,0,.65,92.51c.36.56.73,1.11,1.1,1.67a87.62,87.62,0,0,0,65,39c2.72.25,5.48.39,8.27.39a88.23,88.23,0,0,0,13.73-1.07,80.47,80.47,0,0,1-30.87-23.8,67.32,67.32,0,0,0,82.09-3.83l.34-.37A64.26,64.26,0,0,1,59.81,151.5l-.87-.51-3.7-2.13a1.91,1.91,0,0,1-.08-3.26l9.37-6.05L82.45,128a1.91,1.91,0,0,1,2.94,1.7l-1.62,32.45a1.91,1.91,0,0,1-2.86,1.56L76.24,161a50.37,50.37,0,0,0,96.52,28.8,75.76,75.76,0,0,0-9.36-66.6Z"/></g></g></svg>
