<?xml version="1.0" encoding="utf-8"?>
<!-- Generator: Adobe Illustrator 16.0.0, SVG Export Plug-In . SVG Version: 6.00 Build 0)  -->
<!DOCTYPE svg PUBLIC "-//W3C//DTD SVG 1.1//EN" "http://www.w3.org/Graphics/SVG/1.1/DTD/svg11.dtd">
<svg version="1.1" id="Layer_1" xmlns="http://www.w3.org/2000/svg" xmlns:xlink="http://www.w3.org/1999/xlink" x="0px" y="0px"
	 width="168px" height="177.878px" viewBox="0 0 168 177.878" enable-background="new 0 0 168 177.878" xml:space="preserve">
<g>
	<defs>
		<rect id="SVGID_1_" x="-48.725" y="-29.454" width="260.784" height="276.117"/>
	</defs>
	<clipPath id="SVGID_2_">
		<use xlink:href="#SVGID_1_"  overflow="visible"/>
	</clipPath>
	<path clip-path="url(#SVGID_2_)" fill="#45A6DA" d="M100.555,6.836c-4.909,7.243-11.791,18.955-15.505,33.106
		c-2.586,9.847-2.326,15.893-1.084,20.902c0.941,3.796,2.365,6.611,3.204,8.24c3.313,6.434,7.302,10.236,12.706,15.278
		c5.12,4.775,6.56,5.605,9.536,8.074c0,0.001,2.345,1.95,4.744,4.198c5.483,5.143,9.986,9.365,12.271,16.016
		c1.321,3.854,1.613,7.688,1.68,9.572c0.024,0.655,0.077,2.603-0.192,5.174c-0.171,1.609-0.744,6.141-3.234,12.225
		c-1.518,3.706-3.849,9.398-9.165,15.126c-5.585,6.012-11.744,9.134-15.732,10.733c3.231-0.546,24.021-4.377,34.566-22.722
		c5.655-9.836,5.952-19.868,6.016-22.995c0.044-2.137,0.106-11.938-4.172-21.245c-1.549-3.373-3.917-7.216-4.075-7.472
		c-2.131-3.443-4.054-5.946-5.62-7.986c-3.404-4.435-5.421-6.738-6.347-7.811c-1.48-1.717-1.576-1.717-2.004-2.636
		c-1.735-3.731-0.524-4.492-1.389-17.136c-0.661-9.725-1.609-12.431-2.586-14.493c-1.863-3.925-4.493-6.565-6.469-8.204
		c0.809,3.029,1.547,7.035,1.553,11.759c0.009,6.976-1.581,12.598-2.946,16.238c-2.93-4.125-6.926-10.904-8.954-20.066
		C93.855,24.903,98.422,11.955,100.555,6.836"/>
	<path clip-path="url(#SVGID_2_)" fill="#2F86BD" d="M121.416,115.367c-1.643-4.757-4.32-8.021-8.409-12.989
		c-8.189-9.946-13.887-11.139-21.989-20.92c-4.669-5.634-7.497-10.933-8.409-12.854C72.054,46.413,96.336,11.175,99.391,6.836
		c-6.814,1.249-16.573,3.969-26.873,10.357c-3.276,2.032-20.492,13.047-31.563,36.098c-3.021,6.288-7.373,15.577-8.279,28.713
		c-1.118,16.193,3.649,28.833,6.468,35.004c-1.908-1.949-4.006-4.518-5.95-7.761c-2.976-4.956-5.952-12.066-5.952-20.681
		c0,0-3.104,10.187-2.618,23.894c1.056,29.816,18.918,45.019,18.918,45.019c6.517,5.625,14.712,9.299,23.323,10.897
		c15.146-5.146,30.436-14.302,31.809-30.445l-6.953,0.725l9.12-22.879l13.224,20.694l-6.087,0.694c0,0-1.697,14.537-18.183,25.538
		c-3.687,2.462-8.539,4.702-14.505,6.564c12.9,0.343,25.828-3.966,34.744-13.429C119.194,146.114,126.084,128.903,121.416,115.367"
		/>
</g>
</svg>
